<?xml version="1.0" standalone="no"?>
<!DOCTYPE svg PUBLIC "-//W3C//DTD SVG 20010904//EN"
 "http://www.w3.org/TR/2001/REC-SVG-20010904/DTD/svg10.dtd">
<svg version="1.0" xmlns="http://www.w3.org/2000/svg"
 width="1080.000000pt" height="1080.000000pt" viewBox="0 0 1080.000000 1080.000000"
 preserveAspectRatio="xMidYMid meet">

<g transform="translate(0.000000,1080.000000) scale(0.100000,-0.100000)"
fill="#000000" stroke="none">
<path d="M0 5400 l0 -5400 5400 0 5400 0 0 5400 0 5400 -5400 0 -5400 0 0
-5400z m8531 3625 c383 -67 673 -330 784 -710 21 -69 28 -120 32 -220 6 -154
-14 -272 -69 -406 -19 -46 -167 -311 -328 -589 -161 -278 -354 -611 -428 -740
-74 -129 -140 -241 -147 -248 -9 -10 -41 38 -152 230 -77 134 -196 340 -265
458 -289 498 -476 829 -501 890 -144 350 -67 757 198 1038 119 127 208 187
362 246 160 62 348 80 514 51z m-590 -2581 c8 -10 56 -89 107 -178 l92 -161
-1182 -6 c-1274 -6 -1267 -6 -1503 -61 -439 -102 -708 -337 -782 -681 -20 -95
-13 -294 15 -392 89 -321 313 -549 634 -647 72 -22 85 -22 858 -29 861 -7 856
-6 1036 -70 319 -112 568 -327 716 -615 253 -493 162 -1081 -226 -1470 -106
-105 -184 -162 -316 -232 -120 -63 -215 -96 -359 -121 -113 -21 -139 -21
-2243 -21 -1170 0 -2128 3 -2128 6 0 3 45 84 101 180 l101 174 2022 0 c1369 0
2041 3 2082 11 295 52 552 253 675 527 101 223 99 513 -5 737 -96 207 -240
352 -447 449 -179 84 -126 79 -1014 86 -857 7 -825 5 -1010 65 -90 30 -238
103 -320 158 -85 58 -228 198 -297 291 -105 143 -186 325 -223 506 -25 120
-30 317 -11 435 44 262 164 502 345 685 107 108 199 176 321 239 167 86 311
127 488 141 53 4 629 8 1278 9 1086 1 1183 0 1195 -15z m-5340 -1760 c375 -64
683 -350 785 -729 15 -55 19 -105 19 -235 0 -268 -20 -319 -315 -825 -166
-286 -230 -396 -501 -867 -85 -147 -156 -267 -159 -267 -3 -1 -33 48 -66 107
-34 59 -188 325 -341 592 -466 808 -485 842 -514 921 -48 132 -62 226 -56 373
10 253 94 454 270 642 221 237 548 344 878 288z"/>
<path d="M8212 8640 c-177 -46 -331 -179 -402 -345 -51 -120 -61 -281 -24
-407 56 -188 218 -351 409 -411 81 -25 250 -29 324 -8 168 48 318 172 389 321
47 100 62 163 62 268 -1 397 -373 683 -758 582z m330 -207 c88 -41 160 -113
201 -201 30 -63 32 -74 32 -177 0 -99 -3 -116 -27 -168 -36 -76 -123 -166
-195 -202 -161 -79 -352 -47 -479 79 -216 217 -132 579 161 688 39 14 71 18
145 15 82 -2 104 -7 162 -34z"/>
<path d="M2275 4305 c-205 -57 -377 -230 -429 -431 -21 -80 -21 -228 0 -308
37 -144 157 -302 284 -373 102 -58 173 -76 295 -77 61 0 130 6 155 13 202 57
366 216 431 416 28 86 31 227 5 324 -54 209 -226 382 -433 435 -74 20 -238 20
-308 1z m328 -207 c73 -35 156 -113 195 -186 134 -252 -20 -557 -305 -605
-174 -28 -363 75 -441 240 -24 52 -27 69 -27 173 0 105 2 120 27 170 51 105
136 182 241 221 79 29 231 23 310 -13z"/>
</g>
</svg>
